<svg xmlns="http://www.w3.org/2000/svg" width="98" height="20" fill="none"><path fill="#fff" d="M15.755.588c-3.242-.527-7.008 3.22-8.413 8.37l-.01.036C7.157 4.284 5.758.616 4.057.616 2.236.616.76 4.818.76 10.002c0 5.184 1.475 9.386 3.296 9.386 1.248 0 2.334-1.976 2.893-4.888.41 2.565 1.735 4.414 3.719 4.737 3.241.527 7.008-3.221 8.413-8.37 1.404-5.15-.085-9.752-3.326-10.28Zm11.403-.05-5.882 18.657h3.213l1.274-4.043h7.348l1.29 4.043h3.212L31.732.538h-4.574Zm-.477 11.7 2.734-8.678 2.767 8.677H26.68Zm21.251-.344c-.67-.367-1.56-.693-2.675-.978-1.088-.276-1.907-.51-2.455-.7-.549-.19-.913-.38-1.095-.57a.958.958 0 0 1-.272-.686c0-.475.224-.845.674-1.108.449-.263 1.04-.374 1.775-.33.768.043 1.384.237 1.846.583.462.345.732.816.81 1.412l3.187-.57a4.311 4.311 0 0 0-.96-2.19c-.517-.622-1.198-1.101-2.04-1.438-.842-.337-1.807-.505-2.895-.505-1.114 0-2.082.175-2.902.525-.821.35-1.46.848-1.918 1.496-.458.648-.686 1.408-.686 2.28 0 .7.15 1.296.453 1.788.302.492.799.918 1.49 1.276.69.359 1.624.693 2.799 1.004 1.053.277 1.835.505 2.344.687.51.181.84.37.991.564.152.194.227.45.227.77 0 .518-.205.927-.615 1.225-.41.298-.991.447-1.743.447-.855 0-1.563-.199-2.124-.596a2.69 2.69 0 0 1-1.089-1.633l-3.187.493c.233 1.407.89 2.5 1.97 3.277 1.08.778 2.482 1.166 4.21 1.166 1.805 0 3.22-.401 4.243-1.204 1.023-.804 1.535-1.91 1.535-3.317 0-.726-.149-1.343-.447-1.853-.297-.51-.782-.948-1.45-1.315Zm7.547-10.578h-3.11v3.887H49.83V7.65h2.54v5.83c0 .795.008 1.508.025 2.138a4.17 4.17 0 0 0 .505 1.853 3.251 3.251 0 0 0 1.594 1.457c.7.307 1.492.47 2.377.492.886.022 1.79-.054 2.715-.226v-2.617c-.873.13-1.65.164-2.332.103-.683-.06-1.18-.35-1.49-.868-.164-.267-.253-.613-.266-1.036-.013-.423-.02-.916-.02-1.477V7.65h4.108V5.203h-4.107V1.316ZM70.475 5.83c-1.015-.677-2.248-1.016-3.699-1.016-1.373 0-2.582.31-3.627.933-1.045.622-1.862 1.496-2.449 2.623-.587 1.127-.88 2.455-.88 3.984 0 1.417.3 2.669.9 3.757a6.506 6.506 0 0 0 2.507 2.552c1.07.614 2.314.92 3.73.92 1.348 0 2.581-.35 3.7-1.05 1.118-.699 1.945-1.679 2.48-2.94l-3.083-.933c-.302.648-.732 1.143-1.289 1.484-.557.34-1.22.511-1.989.511-1.192 0-2.099-.388-2.72-1.166-.488-.61-.782-1.419-.887-2.422h10.124c.121-1.676-.065-3.131-.557-4.366-.492-1.236-1.246-2.192-2.26-2.87Zm-3.57 1.718c1.132 0 1.961.35 2.488 1.049.374.496.615 1.203.728 2.112h-6.877c.143-.809.412-1.469.812-1.976.621-.79 1.571-1.186 2.85-1.186Zm14.589-2.404c-.44.03-.87.113-1.29.246a4.468 4.468 0 0 0-1.146.551 3.78 3.78 0 0 0-1.043.952 4.88 4.88 0 0 0-.356.55v-2.24h-2.76v13.992h3.135v-7.113a5.5 5.5 0 0 1 .195-1.496c.13-.462.33-.875.602-1.238a3.19 3.19 0 0 1 1.056-.894c.432-.259.918-.41 1.458-.453.54-.043 1.017-.004 1.431.117V5.203a5.496 5.496 0 0 0-1.282-.059ZM95.978 8.37a6.487 6.487 0 0 0-2.436-2.61c-1.045-.63-2.272-.946-3.68-.946-1.372 0-2.582.31-3.627.933a6.495 6.495 0 0 0-2.448 2.59c-.588 1.107-.881 2.393-.881 3.862 0 1.442.287 2.718.861 3.828a6.438 6.438 0 0 0 2.43 2.61c1.044.631 2.267.946 3.666.946 1.4 0 2.621-.313 3.666-.939a6.484 6.484 0 0 0 2.442-2.604c.583-1.11.875-2.39.875-3.841 0-1.443-.29-2.719-.868-3.829Zm-3.343 7.042c-.604.829-1.528 1.243-2.772 1.243-1.2 0-2.11-.403-2.727-1.211-.618-.808-.927-1.89-.927-3.245 0-.881.13-1.656.39-2.326.258-.67.657-1.192 1.197-1.568.54-.375 1.229-.563 2.067-.563 1.226 0 2.146.404 2.76 1.211.613.808.92 1.89.92 3.246 0 1.313-.303 2.383-.908 3.213Z"/></svg>