<svg xmlns="http://www.w3.org/2000/svg" width="32" height="32" fill="none"><path fill="#E2761B" d="M28.605 3 17.68 11.128l2.02-4.796L28.605 3Z"/><path fill="#E2761B" fill-rule="evenodd" d="M28.654 2.973a.055.055 0 0 1-.016.07l-10.925 8.128a.055.055 0 0 1-.084-.065l2.02-4.795a.055.055 0 0 1 .032-.03l8.905-3.333a.055.055 0 0 1 .068.025Zm-8.912 3.402-1.933 4.588 10.453-7.776-8.52 3.188Z" clip-rule="evenodd"/><path fill="#E4761B" d="m3.383 3 10.838 8.205L12.3 6.332 3.383 3Zm21.291 18.84-2.91 4.465 6.227 1.716 1.79-6.082-5.107-.1Zm-22.444.099 1.78 6.082 6.225-1.716-2.91-4.465-5.095.099Z"/><path fill="#E4761B" fill-rule="evenodd" d="M3.335 2.973a.055.055 0 0 1 .068-.025l8.916 3.333a.055.055 0 0 1 .031.031l1.922 4.872a.055.055 0 0 1-.084.064L3.35 3.044a.055.055 0 0 1-.015-.07Zm.38.21 10.383 7.86-1.84-4.668-8.542-3.192Zm3.61 18.602c.018 0 .036.009.046.025l2.91 4.465a.055.055 0 0 1-.031.083l-6.226 1.715a.055.055 0 0 1-.067-.037l-1.78-6.082a.055.055 0 0 1 .052-.07l5.095-.1Zm17.303.025a.055.055 0 0 1 .047-.025l5.106.099a.055.055 0 0 1 .052.07l-1.79 6.082a.055.055 0 0 1-.067.037l-6.226-1.715a.055.055 0 0 1-.031-.083l2.91-4.465Zm-22.325.182 1.744 5.961 6.101-1.681-2.852-4.377-4.993.097Zm22.4-.097-2.851 4.377 6.101 1.681 1.754-5.961-5.003-.097Z" clip-rule="evenodd"/><path fill="#E4761B" d="m9.884 14.294-1.735 2.629 6.182.275-.22-6.654-4.227 3.75Zm12.221 0-4.282-3.827-.143 6.73 6.17-.274-1.745-2.629Zm-11.87 12.01 3.712-1.815-3.207-2.507-.505 4.322Zm7.807-1.815 3.723 1.815-.517-4.322-3.206 2.507Z"/><path fill="#E4761B" fill-rule="evenodd" d="M17.8 10.417a.055.055 0 0 1 .06.01l4.292 3.836-.001.001 1.746 2.628a.055.055 0 0 1-.044.086l-6.17.275a.054.054 0 0 1-.058-.056l.143-6.731c0-.022.013-.04.033-.05Zm.075.17-.139 6.553 6.015-.268-1.688-2.541-4.188-3.744Zm-3.742-.093c.02.008.032.027.033.048l.22 6.654a.055.055 0 0 1-.058.057l-6.182-.275a.055.055 0 0 1-.043-.085l1.735-2.629a.055.055 0 0 1 .01-.01l4.227-3.751a.055.055 0 0 1 .058-.01ZM9.926 14.33l-1.678 2.541 6.026.268-.214-6.477-4.134 3.668Zm.793 7.6a.055.055 0 0 1 .055.008l3.206 2.507c.015.012.023.03.021.05a.055.055 0 0 1-.03.043l-3.712 1.815a.055.055 0 0 1-.078-.056l.505-4.322a.055.055 0 0 1 .033-.045Zm10.55 0a.055.055 0 0 1 .034.044l.516 4.323a.055.055 0 0 1-.078.056l-3.723-1.815a.055.055 0 0 1-.01-.093l3.207-2.507a.055.055 0 0 1 .055-.008Zm-10.485.154-.483 4.126 3.543-1.732-3.06-2.393Zm7.361 2.394 3.553 1.732-.492-4.126-3.06 2.394Z" clip-rule="evenodd"/><path fill="#D7C1B3" d="m21.765 26.305-3.723-1.815.297 2.43-.033 1.024 3.459-1.64Zm-11.53 0 3.459 1.639-.022-1.023.274-2.43-3.71 1.814Z"/><path fill="#D7C1B3" fill-rule="evenodd" d="M18.01 24.446a.055.055 0 0 1 .056-.005l3.723 1.815a.055.055 0 0 1-.001.099l-3.459 1.639a.055.055 0 0 1-.078-.052l.033-1.018-.296-2.427a.055.055 0 0 1 .022-.051Zm-4.032 0a.055.055 0 0 1 .023.05l-.274 2.428.022 1.019a.055.055 0 0 1-.079.05l-3.458-1.638a.055.055 0 0 1-.001-.1l3.711-1.814a.055.055 0 0 1 .056.005Zm4.13.138.286 2.339-.03.933 3.274-1.552-3.53-1.72Zm-7.746 1.72 3.275 1.552-.02-.941.264-2.331-3.52 1.72Z" clip-rule="evenodd"/><path fill="#233447" d="m13.75 20.377-3.097-.913 2.185-1 .911 1.913Zm4.49 0 .911-1.914 2.197 1.001-3.108.913Z"/><path fill="#233447" fill-rule="evenodd" d="M12.815 18.413c.027-.012.06 0 .072.026l.912 1.914a.055.055 0 0 1-.066.076l-3.096-.912a.055.055 0 0 1-.007-.103l2.185-1Zm6.287.026a.055.055 0 0 1 .072-.026l2.196 1.001a.055.055 0 0 1-.007.103l-3.107.913a.055.055 0 0 1-.066-.077l.912-1.914Zm.076.096-.836 1.755 2.849-.837-2.013-.918Zm-8.37.918 2.839.836-.836-1.753-2.002.917Z" clip-rule="evenodd"/><path fill="#CD6116" d="m10.235 26.305.527-4.465-3.437.099 2.91 4.366Zm11.003-4.465.527 4.465 2.91-4.366-3.437-.099Zm2.613-4.916-6.171.275.57 3.178.912-1.913 2.196 1 2.493-2.54Zm-13.198 2.54 2.196-1 .9 1.913.582-3.178-6.182-.275 2.504 2.54Z"/><path fill="#CD6116" fill-rule="evenodd" d="M8.099 16.901a.055.055 0 0 1 .052-.032l6.182.275a.055.055 0 0 1 .052.064l-.582 3.179a.055.055 0 0 1-.104.013l-.877-1.864-2.147.978a.055.055 0 0 1-.062-.011l-2.503-2.54a.055.055 0 0 1-.011-.062Zm15.802 0c.01.02.005.045-.01.061l-2.493 2.54a.055.055 0 0 1-.062.012l-2.147-.978L18.3 20.4a.055.055 0 0 1-.103-.014l-.571-3.179a.055.055 0 0 1 .051-.064l6.172-.275a.055.055 0 0 1 .052.032Zm-15.615.084 2.379 2.413 2.16-.985c.028-.012.06 0 .073.027l.828 1.759.54-2.948-5.98-.266Zm9.46.266.529 2.948.838-1.76a.055.055 0 0 1 .072-.026l2.161.985 2.368-2.413-5.969.266Zm-6.943 4.552c.01.011.016.027.014.043l-.527 4.465a.055.055 0 0 1-.1.024L7.28 21.97a.055.055 0 0 1 .044-.085l3.437-.1c.016 0 .031.007.042.019Zm10.394 0a.055.055 0 0 1 .042-.018l3.437.099a.055.055 0 0 1 .044.085l-2.91 4.366a.055.055 0 0 1-.1-.024l-.527-4.465a.055.055 0 0 1 .014-.043Zm-13.77.188 2.771 4.16.502-4.255-3.274.095Zm13.872-.095.503 4.254 2.772-4.16-3.275-.094Z" clip-rule="evenodd"/><path fill="#E4751F" d="m8.149 16.924 2.591 5.059-.088-2.519-2.503-2.54Zm13.21 2.54-.11 2.519 2.602-5.06-2.493 2.541ZM14.33 17.2l-.582 3.178.725 3.75.164-4.938-.307-1.99Zm3.349 0-.297 1.98.132 4.949.736-3.75-.571-3.18Z"/><path fill="#E4751F" fill-rule="evenodd" d="M23.883 16.879c.022.016.03.045.017.07l-2.603 5.059a.055.055 0 0 1-.103-.028l.11-2.518c0-.014.006-.027.015-.036l2.493-2.54a.055.055 0 0 1 .071-.007Zm-15.766 0a.055.055 0 0 1 .071.006l2.503 2.54c.01.01.016.023.016.037l.088 2.519a.055.055 0 0 1-.104.027L8.1 16.948a.055.055 0 0 1 .017-.069Zm.244.338 2.316 4.521-.079-2.25-2.237-2.271Zm13.051 2.27-.098 2.248 2.322-4.514-2.224 2.267Zm-7.08-2.343c.026 0 .049.02.053.046l.31 2.001-.167 4.938a.055.055 0 0 1-.108.009l-.725-3.75a.055.055 0 0 1 0-.02l.582-3.18a.055.055 0 0 1 .055-.044Zm3.347 0c.027 0 .05.018.055.045l.57 3.178a.053.053 0 0 1 0 .02l-.735 3.75a.055.055 0 0 1-.109-.008l-.132-4.96.298-1.979a.055.055 0 0 1 .053-.046Zm-3.874 3.233.63 3.261.148-4.446-.257-1.664-.521 2.849Zm3.88-2.84-.247 1.645.119 4.448.638-3.253-.51-2.84Z" clip-rule="evenodd"/><path fill="#F6851B" d="m18.251 20.377-.736 3.75.527.363 3.207-2.508.11-2.518-3.108.913Zm-7.598-.913.087 2.518 3.207 2.508.527-.363-.725-3.75-3.096-.913Z"/><path fill="#F6851B" fill-rule="evenodd" d="M21.392 19.42a.055.055 0 0 1 .021.046l-.11 2.519c0 .016-.008.03-.02.04l-3.207 2.508a.055.055 0 0 1-.065.002l-.527-.363a.055.055 0 0 1-.023-.056l.736-3.75a.055.055 0 0 1 .038-.042l3.108-.913a.055.055 0 0 1 .05.01Zm-10.773 0a.055.055 0 0 1 .05-.01l3.096.914c.02.006.034.022.038.042l.725 3.75a.055.055 0 0 1-.023.056l-.527.363a.055.055 0 0 1-.065-.002l-3.206-2.508a.055.055 0 0 1-.022-.04l-.087-2.52a.06.06 0 0 1 .02-.045Zm7.68 1-.723 3.682.464.32 3.155-2.468.105-2.416-3.002.882Zm-7.589-.882 2.991.882.712 3.682-.464.32-3.155-2.467-.084-2.417Z" clip-rule="evenodd"/><path fill="#C0AD9E" d="m18.306 27.943.033-1.022-.275-.242h-4.14l-.252.242.022 1.022-3.459-1.638 1.208.99 2.449 1.704h4.205l2.46-1.704 1.208-.99-3.46 1.638Z"/><path fill="#C0AD9E" fill-rule="evenodd" d="M10.189 26.276a.055.055 0 0 1 .07-.02l3.378 1.6-.02-.934c0-.015.006-.03.017-.04l.252-.243a.055.055 0 0 1 .039-.015h4.14c.012 0 .025.005.035.014l.275.242c.012.01.019.026.018.043l-.03.933 3.378-1.6a.055.055 0 0 1 .058.091l-1.211.993-2.46 1.705a.055.055 0 0 1-.031.01h-4.205a.055.055 0 0 1-.032-.01l-2.452-1.708-1.208-.99a.055.055 0 0 1-.011-.072Zm.427.27.86.705 2.433 1.694h4.17l2.445-1.694.86-.705-3.055 1.447a.055.055 0 0 1-.078-.051l.032-.997-.24-.211h-4.096l-.22.21.022.998a.055.055 0 0 1-.079.051l-3.054-1.447Z" clip-rule="evenodd"/><path fill="#161616" d="m18.042 24.49-.527-.363h-3.041l-.527.363-.275 2.431.253-.242h4.14l.274.242-.297-2.43Z"/><path fill="#161616" fill-rule="evenodd" d="M14.443 24.082a.057.057 0 0 1 .03-.01h3.042c.011 0 .022.004.031.01l.527.363a.055.055 0 0 1 .024.039l.296 2.43a.055.055 0 0 1-.09.048l-.26-.228h-4.096l-.237.227a.055.055 0 0 1-.093-.046l.275-2.43a.055.055 0 0 1 .024-.04l.527-.363Zm.048.1-.493.34-.254 2.255.143-.137a.055.055 0 0 1 .038-.016h4.14c.013 0 .025.005.036.014l.166.147-.276-2.263-.493-.34h-3.007Z" clip-rule="evenodd"/><path fill="#763D16" d="M29.067 11.655 30 7.168 28.605 3l-10.563 7.853 4.063 3.442 5.743 1.683 1.274-1.485-.55-.396.879-.803-.68-.528.878-.67-.582-.44ZM2 7.168l.933 4.487-.593.44.879.671-.67.528.878.803-.549.396 1.263 1.485 5.743-1.683 4.063-3.442L3.384 3 2 7.168Z"/><path fill="#763D16" fill-rule="evenodd" d="M3.367 2.947a.055.055 0 0 1 .05.009l10.562 7.852a.055.055 0 0 1 .003.086L9.92 14.337a.055.055 0 0 1-.02.01L4.157 16.03a.055.055 0 0 1-.058-.017l-1.262-1.485a.055.055 0 0 1 .01-.08l.494-.356-.83-.758a.055.055 0 0 1 .004-.083l.614-.484-.822-.628a.055.055 0 0 1 0-.088l.565-.419-.926-4.453a.055.055 0 0 1 .002-.028L3.33 2.982a.055.055 0 0 1 .036-.035Zm25.255 0c.017.006.03.019.035.035l1.395 4.169a.054.054 0 0 1 .002.028l-.926 4.453.554.42a.055.055 0 0 1 0 .087l-.822.627.625.485a.055.055 0 0 1 .003.084l-.829.757.495.356a.06.06 0 0 1 .022.038.055.055 0 0 1-.013.042l-1.273 1.485a.055.055 0 0 1-.058.017l-5.742-1.683a.055.055 0 0 1-.02-.01l-4.063-3.443a.055.055 0 0 1 .003-.086l10.563-7.852a.055.055 0 0 1 .049-.009Zm-25.21.142L2.057 7.171l.93 4.473a.055.055 0 0 1-.021.055l-.534.397.82.626a.055.055 0 0 1 0 .087l-.618.488.83.76a.055.055 0 0 1-.004.084l-.501.361 1.2 1.413 5.698-1.67 4.001-3.39L3.412 3.09Zm14.719 7.766 4 3.39 5.698 1.67 1.212-1.413-.5-.36a.055.055 0 0 1-.006-.086l.83-.759-.628-.488a.055.055 0 0 1 0-.087l.82-.627-.523-.396a.055.055 0 0 1-.021-.055l.93-4.473-1.366-4.082-10.446 7.766Z" clip-rule="evenodd"/><path fill="#F6851B" d="m27.848 15.978-5.743-1.683 1.746 2.629-2.602 5.059 3.425-.044h5.106l-1.932-5.961ZM9.884 14.295 4.14 15.978l-1.91 5.96h5.094l3.415.045-2.591-5.06 1.735-2.628ZM17.68 17.2l.362-6.346 1.67-4.52H12.3l1.646 4.52.385 6.346.132 2.001.01 4.928h3.042l.022-4.928.143-2.001Z"/><path fill="#F6851B" fill-rule="evenodd" d="M12.255 6.3a.055.055 0 0 1 .044-.023h7.412a.055.055 0 0 1 .052.074l-1.666 4.513-.362 6.337-.143 2.001-.022 4.925c0 .03-.025.055-.055.055h-3.041a.055.055 0 0 1-.055-.055l-.011-4.925-.132-2-.384-6.338-1.644-4.513a.055.055 0 0 1 .007-.05Zm.123.087 1.62 4.447.003.015.385 6.346.132 2.005.01 4.872h2.932l.022-4.876.143-2 .362-6.347c0-.005.002-.01.004-.015l1.641-4.447h-7.254Zm9.683 7.875a.055.055 0 0 1 .06-.02l5.742 1.683a.055.055 0 0 1 .037.036l1.933 5.96a.055.055 0 0 1-.053.073h-5.105l-3.426.044a.055.055 0 0 1-.05-.08l2.588-5.031-1.728-2.602a.055.055 0 0 1 .002-.063Zm-12.133 0a.055.055 0 0 1 .002.063l-1.718 2.602 2.577 5.03a.055.055 0 0 1-.05.08l-3.414-.043H2.23a.055.055 0 0 1-.052-.072l1.91-5.961a.055.055 0 0 1 .038-.036l5.742-1.683a.055.055 0 0 1 .06.02Zm-5.744 1.76-1.878 5.862h5.02l3.324.043-2.55-4.979a.055.055 0 0 1 .003-.055l1.652-2.503-5.57 1.632Zm18.05-1.632 1.663 2.503a.055.055 0 0 1 .003.056l-2.56 4.977 3.334-.042h5.03l-1.9-5.862-5.57-1.632Z" clip-rule="evenodd"/></svg>