<svg xmlns="http://www.w3.org/2000/svg" width="32" height="32" fill="none"><path fill="#FFC233" fill-rule="evenodd" d="m12.635 19.186 7.626 3.472a3.874 3.874 0 0 1 1.972 1.983c.912 2.099-.334 4.246-2.289 5.018-1.956.772-4.04.275-4.987-1.908l-3.32-7.664c-.257-.595.39-1.178.998-.901Zm.457-2.248 7.872-2.931c2.616-.974 5.474.869 5.435 3.547 0 .035 0 .07-.002.105-.056 2.608-2.835 4.36-5.393 3.438l-7.905-2.85a.69.69 0 0 1-.007-1.31Zm-.441-1.016 7.739-3.238c2.571-1.077 3.224-4.307 1.21-6.174a7.902 7.902 0 0 0-.08-.073c-1.974-1.805-5.238-1.17-6.362 1.208l-3.473 7.347c-.277.585.349 1.189.966.93Zm-1.991-1.279 2.813-7.599a3.627 3.627 0 0 0-.076-2.732c-.913-2.098-3.386-2.776-5.341-2.002-1.955.773-3.06 2.53-2.11 4.713l3.34 7.656c.26.593 1.15.57 1.374-.036Z" clip-rule="evenodd"/></svg>