<svg xmlns="http://www.w3.org/2000/svg" width="32" height="32" fill="none"><path fill="#F62B54" d="M6.234 23.922a3.194 3.194 0 0 1-1.636-.448 3.261 3.261 0 0 1-1.104-4.53L9.32 9.598a3.28 3.28 0 0 1 1.227-1.195 3.194 3.194 0 0 1 1.649-.401 3.194 3.194 0 0 1 1.624.491 3.262 3.262 0 0 1 .985 4.557l-5.824 9.346a3.27 3.27 0 0 1-1.182 1.123 3.194 3.194 0 0 1-1.566.403Z"/><path fill="#FC0" d="M16.229 23.922a3.226 3.226 0 0 1-2.825-1.674 3.25 3.25 0 0 1 .09-3.292l5.815-9.325a3.275 3.275 0 0 1 1.222-1.215A3.19 3.19 0 0 1 22.188 8a3.233 3.233 0 0 1 2.802 1.763c.54 1.06.46 2.329-.21 3.311L18.966 22.4a3.28 3.28 0 0 1-1.178 1.119 3.19 3.19 0 0 1-1.56.403Z"/><path fill="#00CA72" d="M26 24a3 3 0 1 0 0-6 3 3 0 0 0 0 6Z"/></svg>