<svg xmlns="http://www.w3.org/2000/svg" width="32" height="32" fill="none"><path fill="#2EB67D" d="M27.308 14.923a2.692 2.692 0 1 0-2.693-2.692v2.692h2.693Zm-7.539 0a2.692 2.692 0 0 0 2.693-2.692V4.693a2.692 2.692 0 0 0-5.385 0v7.538a2.692 2.692 0 0 0 2.692 2.692Z"/><path fill="#E01E5A" d="M4.692 17.077a2.692 2.692 0 1 0 2.693 2.692v-2.692H4.692Zm7.539 0a2.692 2.692 0 0 0-2.693 2.692v7.538a2.692 2.692 0 0 0 5.385 0V19.77a2.692 2.692 0 0 0-2.692-2.692Z"/><path fill="#ECB22E" d="M17.077 27.308a2.692 2.692 0 1 0 2.692-2.692h-2.692v2.692Zm0-7.538a2.692 2.692 0 0 0 2.692 2.692h7.538a2.692 2.692 0 1 0 0-5.385H19.77a2.692 2.692 0 0 0-2.693 2.692Z"/><path fill="#36C5F0" d="M14.923 4.692a2.692 2.692 0 1 0-2.692 2.692h2.692V4.692Zm0 7.538a2.692 2.692 0 0 0-2.692-2.692H4.693a2.692 2.692 0 1 0 0 5.385h7.538a2.692 2.692 0 0 0 2.692-2.693Z"/></svg>