<svg xmlns="http://www.w3.org/2000/svg" width="32" height="32" fill="none"><path fill="#1E2226" fill-rule="evenodd" d="m19.248 4.055-13.32.98c-1.074.093-1.448.793-1.448 1.632v14.558c0 .654.233 1.213.794 1.96l3.131 4.06c.515.654.982.794 1.964.747l15.468-.934c1.309-.093 1.683-.7 1.683-1.726V8.954c0-.53-.21-.684-.83-1.136l-.106-.077-4.251-2.986c-1.028-.747-1.45-.84-3.085-.7Zm-8.528 4.63c-1.263.086-1.55.105-2.267-.477L6.629 6.76c-.186-.187-.093-.42.374-.466L19.81 5.36c1.075-.093 1.635.28 2.056.607l2.196 1.587c.094.046.327.326.047.326l-13.225.793-.163.011ZM9.247 25.192V11.287c0-.606.187-.886.747-.933l15.189-.887c.515-.046.748.28.748.887v13.81c0 .608-.094 1.122-.935 1.168l-14.534.84c-.841.047-1.215-.233-1.215-.98Zm14.348-13.159c.093.42 0 .84-.422.888l-.7.14v10.264c-.608.327-1.169.514-1.636.514-.748 0-.935-.234-1.495-.933L14.76 15.72v6.952l1.45.327s0 .84-1.17.84l-3.224.187c-.094-.187 0-.654.327-.747l.841-.233v-9.192l-1.168-.094c-.093-.42.14-1.026.795-1.073l3.458-.233 4.767 7.279v-6.44l-1.215-.139c-.093-.514.28-.887.747-.933l3.226-.188Z" clip-rule="evenodd"/></svg>