<svg xmlns="http://www.w3.org/2000/svg" width="32" height="32" fill="none"><path fill="#FCB400" d="M14.503 4.303 4.063 8.729c-.58.246-.574 1.091.01 1.328l10.483 4.26a3.802 3.802 0 0 0 2.868 0l10.483-4.26c.584-.237.59-1.082.01-1.328l-10.44-4.426a3.804 3.804 0 0 0-2.974 0"/><path fill="#18BFFF" d="M16.92 16.642v10.64c0 .507.498.854.958.667l11.68-4.646a.702.702 0 0 0 .321-.263.73.73 0 0 0 .121-.403v-10.64c0-.506-.498-.853-.957-.666l-11.681 4.646a.702.702 0 0 0-.32.263.728.728 0 0 0-.122.402Z"/><path fill="#F82B60" d="m14.193 17.192-3.467 1.715-.352.174-7.318 3.592c-.464.23-1.056-.117-1.056-.645v-9.986c0-.191.096-.356.224-.48a.796.796 0 0 1 .177-.137.73.73 0 0 1 .636-.05l11.097 4.505c.564.23.609 1.04.059 1.312Z"/><path fill="#000" fill-opacity=".25" d="m14.192 17.192-3.466 1.715-8.502-7.346a.795.795 0 0 1 .177-.136.73.73 0 0 1 .636-.05l11.097 4.505c.564.23.608 1.04.058 1.312Z"/></svg>